<?xml version="1.0" encoding="UTF-8" standalone="no"?>
<!DOCTYPE svg PUBLIC "-//W3C//DTD SVG 1.1//EN" "http://www.w3.org/Graphics/SVG/1.1/DTD/svg11.dtd">
<svg version="1.1" xmlns="http://www.w3.org/2000/svg" xmlns:xlink="http://www.w3.org/1999/xlink" preserveAspectRatio="xMidYMid meet" viewBox="0 0 640 640" width="640" height="640"><defs><path d="" id="b13XzdqFoN"></path><path d="M100.94 -459.91L18.27 -488.22L-61.28 -459.91L18.27 -621.07L100.94 -459.91Z" id="a2LS3xhQY"></path><path d="M-61.26 -646.05L20.9 -616.3L100.94 -643.2L18.56 -483.47L-61.26 -646.05Z" id="gf57mYnuM"></path><path d="M-85.47 -450.97L-185.85 -484.93L-282.21 -450.25L-186.45 -646.05L-85.47 -450.97Z" id="a8L351HVBN"></path><path d="M-731.52 -516.81L-702.87 -434.26L-730.84 -354.59L-570.02 -434.83L-731.52 -516.81Z" id="c6ZQhDjYNx"></path><path d="M760.94 1069.95L920.07 1107.67L640 805.25L640 1107.67L760.94 1069.95Z" id="a7i6OqVlL"></path><path d="M616.88 -411.38L461.31 -464.64L311.6 -411.38L461.31 -714.66L616.88 -411.38Z" id="esRmlxzcf"></path><path d="M1037.56 -714.66L984.55 -559L1038.05 -409.38L734.53 -558.6L1037.56 -714.66Z" id="gbsMKp4sQ"></path><path d="M681.86 -712.55L734.88 -556.9L681.37 -407.27L984.89 -556.5L681.86 -712.55Z" id="cB4gRHJzb"></path><path d="M-464.33 1280.14L-619.9 1226.87L-769.62 1280.14L-619.9 976.86L-464.33 1280.14Z" id="b3uoYMX8C1"></path><path d="M-43.65 976.86L-96.67 1132.51L-43.16 1282.14L-346.68 1132.91L-43.65 976.86Z" id="afpJYVMq0"></path><path d="M-399.35 978.96L-346.33 1134.61L-399.84 1284.24L-96.32 1135.01L-399.35 978.96Z" id="kcnxUQfMJ"></path><path d="M1382.16 -283.69L1287.86 40.39L1383.03 351.93L843.13 41.23L1382.16 -283.69Z" id="a5luwRcLT"></path><path d="M318.63 3.85L640 319.74L325.16 640.04L3.8 324.16L318.63 3.85Z" id="cYSkbMUkH"></path><path d="M749.44 -279.31L843.75 44.77L748.57 356.31L1288.47 45.61L749.44 -279.31Z" id="c5ajfaTtxz"></path><path d="M334.3 1305.76L654.3 1602.14L334.3 962.14L19.84 1598.31L334.3 1305.76Z" id="a2Ojy9id9L"></path><path d="M-597.5 -247.07L-405.15 -247.07L-405.15 -363.86L-269.09 -236.59L-269.09 -509.32L-505.15 -509.32L-505.15 -883.24L-903.55 -883.24L-909.09 -236.59L-765.76 -243.24L-765.76 -400.23L-765.76 -679.01L-597.5 -679.01" id="bbgjIlhRZ"></path><path d="M269.6 215.21L320.85 215.21L320.85 138.94L269.6 138.94L269.6 215.21Z" id="a1tluoCjyx"></path><path d="M169.32 446.1L269.6 446.1L269.6 213.53L169.32 213.53L169.32 446.1Z" id="cJ5uduV1M"></path><path d="" id="c28an5rd06"></path><path d="" id="afiMQFXON"></path><path d="M320.85 215.21L372.1 215.21L372.1 138.94L320.85 138.94L320.85 215.21Z" id="b2gd6QSlCs"></path><path d="M320.85 369L372.1 369L372.1 292.73L320.85 292.73L320.85 369Z" id="k4edXUGuel"></path><path d="M269.6 369L320.85 369L320.85 292.73L269.6 292.73L269.6 369Z" id="b1SPcLU0Y"></path><path d="M372.1 446.1L474.61 446.1L474.61 215.21L372.1 215.21L372.1 446.1Z" id="bQ0PO3IVN"></path><path d="M632.66 320L318.52 640L316.56 3.9L632.66 320Z" id="b9pFmv6KM7"></path><path d="M-394.35 153.8L-287.68 153.8L-287.68 -4.94L-394.35 -4.94L-394.35 153.8Z" id="b2O1TUPZ4i"></path><path d="M-394.35 473.88L-287.68 473.88L-287.68 315.14L-394.35 315.14L-394.35 473.88Z" id="a5pW8HfPCD"></path><path d="M-287.68 634.35L-74.35 634.35L-74.35 153.8L-287.68 153.8L-287.68 634.35Z" id="cdYmqccp6"></path><path d="M-501.01 473.88L-394.35 473.88L-394.35 315.14L-501.01 315.14L-501.01 473.88Z" id="cNfkAaTdH"></path><path d="M-501.01 153.8L-394.35 153.8L-394.35 -4.94L-501.01 -4.94L-501.01 153.8Z" id="g1JJpg6JE7"></path><path d="M-709.72 634.35L-501.01 634.35L-501.01 150.29L-709.72 150.29L-709.72 634.35Z" id="e8hMu2eWyi"></path></defs><g><g><g><g><use xlink:href="#b13XzdqFoN" opacity="1" fill-opacity="0" stroke="#000000" stroke-width="1" stroke-opacity="1"></use></g></g><g><g><use xlink:href="#a2LS3xhQY" opacity="1" fill-opacity="0" stroke="#000000" stroke-width="1" stroke-opacity="1"></use></g></g><g><g><use xlink:href="#gf57mYnuM" opacity="1" fill-opacity="0" stroke="#000000" stroke-width="1" stroke-opacity="1"></use></g></g><g><g><use xlink:href="#a8L351HVBN" opacity="1" fill-opacity="0" stroke="#000000" stroke-width="1" stroke-opacity="1"></use></g></g><g><g><use xlink:href="#c6ZQhDjYNx" opacity="1" fill-opacity="0" stroke="#000000" stroke-width="1" stroke-opacity="1"></use></g></g><g><g><use xlink:href="#a7i6OqVlL" opacity="1" fill-opacity="0" stroke="#000000" stroke-width="1" stroke-opacity="1"></use></g></g><g><g><use xlink:href="#esRmlxzcf" opacity="1" fill-opacity="0" stroke="#000000" stroke-width="1" stroke-opacity="1"></use></g></g><g><use xlink:href="#gbsMKp4sQ" opacity="0.18" fill="#000000" fill-opacity="1"></use><g><use xlink:href="#gbsMKp4sQ" opacity="0.18" fill-opacity="0" stroke="#000000" stroke-width="1" stroke-opacity="1"></use></g></g><g><use xlink:href="#cB4gRHJzb" opacity="0.18" fill="#000000" fill-opacity="1"></use><g><use xlink:href="#cB4gRHJzb" opacity="0.18" fill-opacity="0" stroke="#000000" stroke-width="1" stroke-opacity="1"></use></g></g><g><g><use xlink:href="#b3uoYMX8C1" opacity="1" fill-opacity="0" stroke="#000000" stroke-width="1" stroke-opacity="1"></use></g></g><g><g><use xlink:href="#afpJYVMq0" opacity="1" fill-opacity="0" stroke="#000000" stroke-width="1" stroke-opacity="1"></use></g></g><g><g><use xlink:href="#kcnxUQfMJ" opacity="1" fill-opacity="0" stroke="#000000" stroke-width="1" stroke-opacity="1"></use></g></g><g><use xlink:href="#a5luwRcLT" opacity="0.18" fill="#000000" fill-opacity="1"></use><g><use xlink:href="#a5luwRcLT" opacity="0.18" fill-opacity="0" stroke="#000000" stroke-width="1" stroke-opacity="1"></use></g></g><g><use xlink:href="#cYSkbMUkH" opacity="1" fill="#e74ac5" fill-opacity="1"></use><g></g></g><g><use xlink:href="#c5ajfaTtxz" opacity="0.18" fill="#000000" fill-opacity="1"></use><g><use xlink:href="#c5ajfaTtxz" opacity="0.18" fill-opacity="0" stroke="#000000" stroke-width="1" stroke-opacity="1"></use></g></g><g><g><use xlink:href="#a2Ojy9id9L" opacity="1" fill-opacity="0" stroke="#000000" stroke-width="1" stroke-opacity="1"></use></g></g><g><g><use xlink:href="#bbgjIlhRZ" opacity="1" fill-opacity="0" stroke="#000000" stroke-width="1" stroke-opacity="1"></use></g></g><g><use xlink:href="#a1tluoCjyx" opacity="1" fill="#ffffff" fill-opacity="1"></use><g><use xlink:href="#a1tluoCjyx" opacity="1" fill-opacity="0" stroke="#382135" stroke-width="1" stroke-opacity="0"></use></g></g><g><g></g><use xlink:href="#cJ5uduV1M" opacity="1" fill="#ffffff" fill-opacity="1"></use><g><use xlink:href="#cJ5uduV1M" opacity="1" fill-opacity="0" stroke="#382135" stroke-width="1" stroke-opacity="0"></use></g></g><g><g><use xlink:href="#c28an5rd06" opacity="1" fill-opacity="0" stroke="#382136" stroke-width="1" stroke-opacity="0.33"></use></g></g><g><g><use xlink:href="#afiMQFXON" opacity="1" fill-opacity="0" stroke="#382136" stroke-width="1" stroke-opacity="0.33"></use></g></g><g><use xlink:href="#b2gd6QSlCs" opacity="1" fill="#ffffff" fill-opacity="0.99"></use><g><use xlink:href="#b2gd6QSlCs" opacity="1" fill-opacity="0" stroke="#382136" stroke-width="1" stroke-opacity="0"></use></g></g><g><use xlink:href="#k4edXUGuel" opacity="1" fill="#fbfbfb" fill-opacity="1"></use><g><use xlink:href="#k4edXUGuel" opacity="1" fill-opacity="0" stroke="#382135" stroke-width="1" stroke-opacity="0"></use></g></g><g><g></g><use xlink:href="#b1SPcLU0Y" opacity="1" fill="#ffffff" fill-opacity="1"></use><g><use xlink:href="#b1SPcLU0Y" opacity="1" fill-opacity="0" stroke="#ffffff" stroke-width="1" stroke-opacity="0"></use></g><g></g></g><g><use xlink:href="#bQ0PO3IVN" opacity="1" fill="#ffffff" fill-opacity="1"></use><g><use xlink:href="#bQ0PO3IVN" opacity="1" fill-opacity="0" stroke="#382135" stroke-width="1" stroke-opacity="0"></use></g></g><g><g></g><use xlink:href="#b9pFmv6KM7" opacity="1" fill="#35495d" fill-opacity="0.23"></use><g><use xlink:href="#b9pFmv6KM7" opacity="1" fill-opacity="0" stroke="#ffffff" stroke-width="1" stroke-opacity="0"></use></g><g></g></g><g><use xlink:href="#b2O1TUPZ4i" opacity="1" fill="#d6d6d6" fill-opacity="0.68"></use><g><use xlink:href="#b2O1TUPZ4i" opacity="1" fill-opacity="0" stroke="#382135" stroke-width="1" stroke-opacity="0"></use></g></g><g><use xlink:href="#a5pW8HfPCD" opacity="1" fill="#d6d6d6" fill-opacity="0.68"></use><g><use xlink:href="#a5pW8HfPCD" opacity="1" fill-opacity="0" stroke="#382135" stroke-width="1" stroke-opacity="0"></use></g></g><g><use xlink:href="#cdYmqccp6" opacity="1" fill="#d6d6d6" fill-opacity="0.68"></use><g><use xlink:href="#cdYmqccp6" opacity="1" fill-opacity="0" stroke="#382135" stroke-width="1" stroke-opacity="0"></use></g></g><g><use xlink:href="#cNfkAaTdH" opacity="1" fill="#f4f4f4" fill-opacity="0.68"></use><g><use xlink:href="#cNfkAaTdH" opacity="1" fill-opacity="0" stroke="#382135" stroke-width="1" stroke-opacity="0"></use></g></g><g><use xlink:href="#g1JJpg6JE7" opacity="1" fill="#f4f4f4" fill-opacity="0.68"></use><g><use xlink:href="#g1JJpg6JE7" opacity="1" fill-opacity="0" stroke="#382135" stroke-width="1" stroke-opacity="0"></use></g></g><g><use xlink:href="#e8hMu2eWyi" opacity="1" fill="#f4f4f4" fill-opacity="0.68"></use><g><use xlink:href="#e8hMu2eWyi" opacity="1" fill-opacity="0" stroke="#382135" stroke-width="1" stroke-opacity="0"></use></g></g></g></g></svg>