<svg xmlns="http://www.w3.org/2000/svg" xmlns:xlink="http://www.w3.org/1999/xlink" width="640" height="640"><defs><path d="M100.94-459.91l-82.67-28.31-79.55 28.31 79.55-161.16 82.67 161.16z" id="b"/><path d="M-61.26-646.05L20.9-616.3l80.04-26.9-82.38 159.73-79.82-162.58z" id="c"/><path d="M-85.47-450.97l-100.38-33.96-96.36 34.68 95.76-195.8 100.98 195.08z" id="d"/><path d="M-731.52-516.81l28.65 82.55-27.97 79.67 160.82-80.24-161.5-81.98z" id="e"/><path d="M760.94 1069.95l159.13 37.72L640 805.25v302.42l120.94-37.72z" id="f"/><path d="M616.88-411.38l-155.57-53.26-149.71 53.26 149.71-303.28 155.57 303.28z" id="g"/><path d="M1037.56-714.66L984.55-559l53.5 149.62L734.53-558.6l303.03-156.06z" id="h"/><path d="M681.86-712.55l53.02 155.65-53.51 149.63L984.89-556.5 681.86-712.55z" id="i"/><path d="M-464.33 1280.14l-155.57-53.27-149.72 53.27 149.72-303.28 155.57 303.28z" id="j"/><path d="M-43.65 976.86l-53.02 155.65 53.51 149.63-303.52-149.23 303.03-156.05z" id="k"/><path d="M-399.35 978.96l53.02 155.65-53.51 149.63 303.52-149.23-303.03-156.05z" id="l"/><path d="M1382.16-283.69l-94.3 324.08 95.17 311.54-539.9-310.7 539.03-324.92z" id="m"/><path d="M318.63 3.85L640 319.74l-314.84 320.3L3.8 324.16 318.63 3.85z" id="n"/><path d="M749.44-279.31l94.31 324.08-95.18 311.54 539.9-310.7-539.03-324.92z" id="o"/><path d="M334.3 1305.76l320 296.38-320-640-314.46 636.17 314.46-292.55z" id="p"/><path d="M-597.5-247.07h192.35v-116.79l136.06 127.27v-272.73h-236.06v-373.92h-398.4l-5.54 646.65 143.33-6.65v-435.77h168.26" id="q"/><path d="M269.6 215.21h51.25v-76.27H269.6v76.27z" id="r"/><path d="M169.32 446.1H269.6V213.53H169.32V446.1z" id="s"/><path d="M320.85 215.21h51.25v-76.27h-51.25v76.27z" id="v"/><path d="M320.85 369h51.25v-76.27h-51.25V369z" id="w"/><path d="M269.6 369h51.25v-76.27H269.6V369z" id="x"/><path d="M372.1 446.1h102.51V215.21H372.1V446.1z" id="y"/><path d="M632.66 320L318.52 640 316.56 3.9 632.66 320z" id="z"/><path d="M-394.35 153.8h106.67V-4.94h-106.67V153.8z" id="A"/><path d="M-394.35 473.88h106.67V315.14h-106.67v158.74z" id="B"/><path d="M-287.68 634.35h213.33V153.8h-213.33v480.55z" id="C"/><path d="M-501.01 473.88h106.66V315.14h-106.66v158.74z" id="D"/><path d="M-501.01 153.8h106.66V-4.94h-106.66V153.8z" id="E"/><path d="M-709.72 634.35h208.71V150.29h-208.71v484.06z" id="F"/></defs><use xlink:href="#a" fill-opacity="0" stroke="#000"/><use xlink:href="#b" fill-opacity="0" stroke="#000"/><use xlink:href="#c" fill-opacity="0" stroke="#000"/><use xlink:href="#d" fill-opacity="0" stroke="#000"/><use xlink:href="#e" fill-opacity="0" stroke="#000"/><use xlink:href="#f" fill-opacity="0" stroke="#000"/><use xlink:href="#g" fill-opacity="0" stroke="#000"/><use xlink:href="#h" opacity=".18"/><use xlink:href="#h" opacity=".18" fill-opacity="0" stroke="#000"/><use xlink:href="#i" opacity=".18"/><use xlink:href="#i" opacity=".18" fill-opacity="0" stroke="#000"/><use xlink:href="#j" fill-opacity="0" stroke="#000"/><use xlink:href="#k" fill-opacity="0" stroke="#000"/><use xlink:href="#l" fill-opacity="0" stroke="#000"/><use xlink:href="#m" opacity=".18"/><use xlink:href="#m" opacity=".18" fill-opacity="0" stroke="#000"/><use xlink:href="#n" fill="#e74ac5"/><use xlink:href="#o" opacity=".18"/><use xlink:href="#o" opacity=".18" fill-opacity="0" stroke="#000"/><use xlink:href="#p" fill-opacity="0" stroke="#000"/><use xlink:href="#q" fill-opacity="0" stroke="#000"/><use xlink:href="#r" fill="#fff"/><use xlink:href="#r" fill-opacity="0" stroke="#382135" stroke-opacity="0"/><use xlink:href="#s" fill="#fff"/><use xlink:href="#s" fill-opacity="0" stroke="#382135" stroke-opacity="0"/><use xlink:href="#t" fill-opacity="0" stroke="#382136" stroke-opacity=".33"/><use xlink:href="#u" fill-opacity="0" stroke="#382136" stroke-opacity=".33"/><use xlink:href="#v" fill="#fff" fill-opacity=".99"/><use xlink:href="#v" fill-opacity="0" stroke="#382136" stroke-opacity="0"/><use xlink:href="#w" fill="#fbfbfb"/><use xlink:href="#w" fill-opacity="0" stroke="#382135" stroke-opacity="0"/><g><use xlink:href="#x" fill="#fff"/><use xlink:href="#x" fill-opacity="0" stroke="#fff" stroke-opacity="0"/></g><g><use xlink:href="#y" fill="#fff"/><use xlink:href="#y" fill-opacity="0" stroke="#382135" stroke-opacity="0"/></g><g><use xlink:href="#z" fill="#35495d" fill-opacity=".23"/><use xlink:href="#z" fill-opacity="0" stroke="#fff" stroke-opacity="0"/></g><g><use xlink:href="#A" fill="#d6d6d6" fill-opacity=".68"/><use xlink:href="#A" fill-opacity="0" stroke="#382135" stroke-opacity="0"/></g><g><use xlink:href="#B" fill="#d6d6d6" fill-opacity=".68"/><use xlink:href="#B" fill-opacity="0" stroke="#382135" stroke-opacity="0"/></g><g><use xlink:href="#C" fill="#d6d6d6" fill-opacity=".68"/><use xlink:href="#C" fill-opacity="0" stroke="#382135" stroke-opacity="0"/></g><g><use xlink:href="#D" fill="#f4f4f4" fill-opacity=".68"/><use xlink:href="#D" fill-opacity="0" stroke="#382135" stroke-opacity="0"/></g><g><use xlink:href="#E" fill="#f4f4f4" fill-opacity=".68"/><use xlink:href="#E" fill-opacity="0" stroke="#382135" stroke-opacity="0"/></g><g><use xlink:href="#F" fill="#f4f4f4" fill-opacity=".68"/><use xlink:href="#F" fill-opacity="0" stroke="#382135" stroke-opacity="0"/></g></svg>